<svg width="16" height="20" viewBox="0 0 16 20" fill="none" xmlns="http://www.w3.org/2000/svg">
<rect x="0.5" y="0.5" width="15" height="15" rx="7.5" fill="#F36A1D"/>
<path d="M8.00002 5.66663C7.53853 5.66663 7.08741 5.80347 6.70369 6.05986C6.31998 6.31625 6.02091 6.68067 5.8443 7.10703C5.6677 7.53339 5.62149 8.00255 5.71152 8.45517C5.80155 8.90779 6.02378 9.32355 6.35011 9.64988C6.67643 9.9762 7.09219 10.1984 7.54481 10.2885C7.99743 10.3785 8.46659 10.3323 8.89295 10.1557C9.31931 9.97908 9.68373 9.68001 9.94012 9.29629C10.1965 8.91258 10.3334 8.46145 10.3334 7.99996C10.3334 7.38112 10.0875 6.78763 9.64994 6.35004C9.21235 5.91246 8.61886 5.66663 8.00002 5.66663ZM8.00002 9.66663C7.67039 9.66663 7.34815 9.56888 7.07407 9.38574C6.79999 9.20261 6.58637 8.94231 6.46022 8.63777C6.33408 8.33322 6.30107 7.99811 6.36538 7.67481C6.42969 7.35151 6.58842 7.05454 6.82151 6.82145C7.0546 6.58836 7.35157 6.42963 7.67487 6.36532C7.99817 6.30101 8.33328 6.33401 8.63783 6.46016C8.94237 6.58631 9.20267 6.79993 9.3858 7.07401C9.56894 7.34809 9.66669 7.67032 9.66669 7.99996C9.66669 8.44199 9.49109 8.86591 9.17853 9.17847C8.86597 9.49103 8.44205 9.66663 8.00002 9.66663Z" fill="#FBFBFA"/>
<rect x="0.5" y="0.5" width="15" height="15" rx="7.5" stroke="#FBFBFA"/>
<rect x="7" y="16" width="2" height="4" fill="#F36A1D"/>
</svg>
